<?xml version="1.0"?>
<svg xmlns="http://www.w3.org/2000/svg" xmlns:xlink="http://www.w3.org/1999/xlink" version="1.1" id="Capa_1" x="0px" y="0px" viewBox="0 0 512 512" style="enable-background:new 0 0 512 512;" xml:space="preserve" width="512px" height="512px" class=""><g><g>
	<g>
		<path d="M482,54h-49.667c-5.523,0-10,4.477-10,10s4.477,10,10,10H482c5.514,0,10,4.486,10,10v256c0,5.514-4.486,10-10,10H30    c-5.514,0-10-4.486-10-10v-9.607l64.571-64.571c3.905-3.905,3.905-10.237,0-14.143c-3.905-3.905-10.237-3.905-14.143,0L20,302.107    V84c0-5.514,4.486-10,10-10h137.857L61.846,180.012c-3.905,3.905-3.905,10.237,0,14.143c1.953,1.953,4.512,2.929,7.071,2.929    c2.559,0,5.119-0.976,7.071-2.929L193.654,76.488c0.751-0.751,1.354-1.593,1.816-2.488h146.899c5.523,0,10-4.477,10-10    s-4.477-10-10-10H30C13.458,54,0,67.458,0,84v256c0,16.542,13.458,30,30,30h188v28h-34c-16.542,0-30,13.458-30,30v20    c0,5.523,4.477,10,10,10h184c5.523,0,10-4.477,10-10v-20c0-16.542-13.458-30-30-30h-34v-28h188c16.542,0,30-13.458,30-30V84    C512,67.458,498.542,54,482,54z M238,370h36v28h-36V370z M328,418c5.514,0,10,4.486,10,10v10H174v-10c0-5.514,4.486-10,10-10H328z    " data-original="#000000" class="active-path" data-old_color="#000000" fill="#08A495"/>
	</g>
</g><g>
	<g>
		<path d="M398.07,56.93C396.21,55.07,393.63,54,391,54s-5.21,1.07-7.07,2.93C382.07,58.79,381,61.37,381,64s1.07,5.21,2.93,7.07    c1.86,1.86,4.44,2.93,7.07,2.93s5.21-1.07,7.07-2.93c1.86-1.86,2.93-4.44,2.93-7.07S399.93,58.79,398.07,56.93z" data-original="#000000" class="active-path" data-old_color="#000000" fill="#08A495"/>
	</g>
</g><g>
	<g>
		<path d="M346.357,162.83c-5.066-2.203-10.956,0.118-13.159,5.182l-25.962,59.699l-28.104-59.956c-2.344-5-8.297-7.156-13.299-4.81    c-5,2.344-7.154,8.298-4.81,13.299l37.5,80c1.648,3.516,5.179,5.755,9.054,5.755c0.047,0,0.095,0,0.142-0.001    c3.93-0.055,7.462-2.407,9.03-6.011l34.791-80C353.742,170.923,351.422,165.032,346.357,162.83z" data-original="#000000" class="active-path" data-old_color="#000000" fill="#08A495"/>
	</g>
</g><g>
	<g>
		<path d="M221.396,162h-48.889c-5.523,0-10,4.477-10,10s4.477,10,10,10h14.444v70c0,5.523,4.477,10,10,10s10-4.477,10-10v-70    h14.445c5.523,0,10-4.477,10-10S226.919,162,221.396,162z" data-original="#000000" class="active-path" data-old_color="#000000" fill="#08A495"/>
	</g>
</g><g>
	<g>
		<path d="M113.07,223.18c-1.86-1.86-4.44-2.93-7.07-2.93s-5.21,1.07-7.07,2.93S96,227.62,96,230.25s1.07,5.21,2.93,7.07    s4.44,2.93,7.07,2.93s5.21-1.07,7.07-2.93s2.93-4.44,2.93-7.07S114.93,225.04,113.07,223.18z" data-original="#000000" class="active-path" data-old_color="#000000" fill="#08A495"/>
	</g>
</g></g> </svg>
