<svg xmlns="http://www.w3.org/2000/svg" viewBox="0 0 1086 198" width="1086" height="198">
	<defs>
		<linearGradient id="grd1" gradientUnits="userSpaceOnUse"  x1="31.706" y1="59.681" x2="1020.4" y2="186.962">
			<stop offset="0" stop-color="#50bd98"  />
			<stop offset="1" stop-color="#35a198"  />
		</linearGradient>
		<linearGradient id="grd2" gradientUnits="userSpaceOnUse"  x1="31.258" y1="63.156" x2="1019.951" y2="190.437">
			<stop offset="0" stop-color="#50bd98"  />
			<stop offset="1" stop-color="#35a198"  />
		</linearGradient>
		<linearGradient id="grd3" gradientUnits="userSpaceOnUse"  x1="29.34" y1="78.058" x2="1018.033" y2="205.339">
			<stop offset="0" stop-color="#50bd98"  />
			<stop offset="1" stop-color="#35a198"  />
		</linearGradient>
		<linearGradient id="grd4" gradientUnits="userSpaceOnUse"  x1="31.15" y1="64.007" x2="1019.841" y2="191.288">
			<stop offset="0" stop-color="#50bd98"  />
			<stop offset="1" stop-color="#35a198"  />
		</linearGradient>
		<linearGradient id="grd5" gradientUnits="userSpaceOnUse"  x1="38.964" y1="3.3" x2="1027.657" y2="130.581">
			<stop offset="0" stop-color="#50bd98"  />
			<stop offset="1" stop-color="#35a198"  />
		</linearGradient>
		<linearGradient id="grd6" gradientUnits="userSpaceOnUse"  x1="37.394" y1="15.501" x2="1026.086" y2="142.782">
			<stop offset="0" stop-color="#50bd98"  />
			<stop offset="1" stop-color="#35a198"  />
		</linearGradient>
		<linearGradient id="grd7" gradientUnits="userSpaceOnUse"  x1="36.01" y1="26.24" x2="1024.704" y2="153.522">
			<stop offset="0" stop-color="#50bd98"  />
			<stop offset="1" stop-color="#35a198"  />
		</linearGradient>
		<linearGradient id="grd8" gradientUnits="userSpaceOnUse"  x1="30.443" y1="69.493" x2="1019.136" y2="196.774">
			<stop offset="0" stop-color="#50bd98"  />
			<stop offset="1" stop-color="#35a198"  />
		</linearGradient>
		<linearGradient id="grd9" gradientUnits="userSpaceOnUse"  x1="44.661" y1="-40.957" x2="1033.355" y2="86.324">
			<stop offset="0" stop-color="#50bd98"  />
			<stop offset="1" stop-color="#35a198"  />
		</linearGradient>
		<linearGradient id="grd10" gradientUnits="userSpaceOnUse"  x1="46.692" y1="-56.736" x2="1035.386" y2="70.545">
			<stop offset="0" stop-color="#50bd98"  />
			<stop offset="1" stop-color="#35a198"  />
		</linearGradient>
	</defs>
	<style>
		tspan { white-space:pre }
		.shp0 { fill: url(#grd1) } 
		.shp1 { fill: url(#grd2) } 
		.shp2 { fill: url(#grd3) } 
		.shp3 { fill: url(#grd4) } 
		.shp4 { fill: url(#grd5) } 
		.shp5 { fill: url(#grd6) } 
		.shp6 { fill: url(#grd7) } 
		.shp7 { fill: url(#grd8) } 
		.shp8 { fill: url(#grd9) } 
		.shp9 { fill: url(#grd10) } 
	</style>
	<g id="g10">
		<g id="g14">
			<g id="g16">
				<g id="g22">
					<g id="g24">
						<path id="path32" class="shp0" d="M115.56 3.72L115.56 140.43L140.37 140.43L140.37 94.79C140.37 90.98 140.81 87.41 141.69 84.1L141.69 84.1C142.71 80.67 144.09 77.67 145.86 75.13L145.86 75.13C147.75 72.58 150.03 70.61 152.68 69.21L152.68 69.21C155.33 67.68 158.36 66.92 161.77 66.92L161.77 66.92C167.2 66.92 171.42 68.64 174.45 72.07L174.45 72.07C177.48 75.38 179 80.28 179 86.78L179 86.78L179 140.43L203.81 140.43L203.81 83.72C203.81 71.37 200.9 61.64 195.09 54.51L195.09 54.51C189.41 47.38 180.58 43.81 168.58 43.81L168.58 43.81C162.4 43.81 156.78 45.28 151.73 48.21L151.73 48.21C146.81 51.01 143.02 54.63 140.37 59.09L140.37 59.09L138.85 59.09L140.37 42.09L140.37 3.72L115.56 3.72Z" />
					</g>
				</g>
			</g>
		</g>
		<g id="g34">
			<g id="g36">
				<g id="g42">
					<g id="g44">
						<path id="path52" fill-rule="evenodd" class="shp1" d="M268.23 43.81C275.42 43.81 281.99 45.09 287.92 47.63C293.98 50.05 299.16 53.49 303.45 57.94C307.87 62.27 311.28 67.49 313.67 73.6C316.2 79.71 317.46 86.39 317.46 93.65C317.46 100.9 316.2 107.59 313.67 113.7C311.28 119.81 307.87 125.09 303.45 129.55C299.16 133.88 293.98 137.31 287.92 139.86C281.99 142.28 275.42 143.49 268.23 143.49C261.03 143.49 254.41 142.28 248.35 139.86C242.41 137.31 237.24 133.88 232.82 129.55C228.53 125.09 225.12 119.81 222.59 113.7C220.19 107.59 218.99 100.9 218.99 93.65C218.99 86.39 220.19 79.71 222.59 73.6C225.12 67.49 228.53 62.27 232.82 57.94C237.24 53.49 242.41 50.05 248.35 47.63C254.41 45.09 261.03 43.81 268.23 43.81ZM268.23 120.38C271.38 120.38 274.41 119.81 277.32 118.66C280.35 117.39 283 115.61 285.27 113.32C287.54 111.03 289.31 108.23 290.57 104.91C291.96 101.61 292.65 97.85 292.65 93.65C292.65 89.45 291.96 85.69 290.57 82.38C289.31 79.07 287.54 76.27 285.27 73.98C283 71.69 280.35 69.97 277.32 68.83C274.41 67.55 271.38 66.92 268.23 66.92C264.95 66.92 261.85 67.55 258.95 68.83C256.05 69.97 253.46 71.69 251.19 73.98C248.91 76.27 247.08 79.07 245.69 82.38C244.43 85.69 243.8 89.45 243.8 93.65C243.8 97.85 244.43 101.61 245.69 104.91C247.08 108.23 248.91 111.03 251.19 113.32C253.46 115.61 256.05 117.39 258.95 118.66C261.85 119.81 264.95 120.38 268.23 120.38Z" />
					</g>
				</g>
			</g>
		</g>
		<g id="g54">
			<g id="g56">
				<g id="g62">
					<g id="g64">
						<path id="path72" fill-rule="evenodd" class="shp2" d="M367.13 48.01C371.93 45.21 377.86 43.81 384.93 43.81C390.86 43.81 396.48 45.09 401.78 47.63C407.21 50.05 411.94 53.49 415.98 57.94C420.15 62.27 423.43 67.49 425.83 73.6C428.23 79.71 429.43 86.39 429.43 93.65C429.43 100.9 428.23 107.59 425.83 113.7C423.43 119.81 420.15 125.09 415.98 129.55C411.94 133.88 407.21 137.31 401.78 139.86C396.48 142.28 390.86 143.49 384.93 143.49C377.86 143.49 371.93 142.09 367.13 139.29C362.33 136.48 358.8 133.11 356.52 129.16L355.01 129.16L356.52 142.53L356.52 197.34L331.72 197.34L331.72 46.87L355.01 46.87L355.01 58.13L356.52 58.13C358.8 54.19 362.33 50.81 367.13 48.01ZM370.35 118.66C373.38 119.81 376.53 120.38 379.81 120.38C383.1 120.38 386.19 119.74 389.09 118.47C392.12 117.2 394.77 115.42 397.05 113.13C399.32 110.83 401.15 108.03 402.54 104.72C403.93 101.41 404.62 97.72 404.62 93.65C404.62 89.58 403.93 85.89 402.54 82.57C401.15 79.27 399.32 76.47 397.05 74.17C394.77 71.88 392.12 70.1 389.09 68.83C386.19 67.55 383.1 66.92 379.81 66.92C376.53 66.92 373.38 67.55 370.35 68.83C367.44 69.97 364.86 71.69 362.58 73.98C360.31 76.27 358.48 79.07 357.09 82.38C355.7 85.69 355.01 89.45 355.01 93.65C355.01 97.85 355.7 101.61 357.09 104.91C358.48 108.23 360.31 111.03 362.58 113.32C364.86 115.61 367.44 117.39 370.35 118.66Z" />
					</g>
				</g>
			</g>
		</g>
		<g id="g74">
			<g id="g76">
				<g id="g82">
					<g id="g84">
						<path id="path92" fill-rule="evenodd" class="shp3" d="M478.08 48.01C482.88 45.21 488.81 43.81 495.88 43.81C501.81 43.81 507.43 45.09 512.73 47.63C518.16 50.05 522.89 53.49 526.93 57.94C531.1 62.27 534.38 67.49 536.78 73.6C539.18 79.71 540.38 86.39 540.38 93.65C540.38 100.9 539.18 107.59 536.78 113.7C534.38 119.81 531.1 125.09 526.93 129.55C522.89 133.88 518.16 137.31 512.73 139.86C507.43 142.28 501.81 143.49 495.88 143.49C488.81 143.49 482.88 142.09 478.08 139.29C473.29 136.48 469.75 133.11 467.48 129.16L465.96 129.16L467.48 142.53L467.48 197.34L442.67 197.34L442.67 46.87L465.96 46.87L465.96 58.13L467.48 58.13C469.75 54.19 473.29 50.81 478.08 48.01ZM481.3 118.66C484.33 119.81 487.49 120.38 490.77 120.38C494.05 120.38 497.14 119.74 500.05 118.47C503.08 117.2 505.73 115.42 508 113.13C510.27 110.83 512.1 108.03 513.49 104.72C514.88 101.41 515.57 97.72 515.57 93.65C515.57 89.58 514.88 85.89 513.49 82.57C512.1 79.27 510.27 76.47 508 74.17C505.73 71.88 503.08 70.1 500.05 68.83C497.14 67.55 494.05 66.92 490.77 66.92C487.49 66.92 484.33 67.55 481.3 68.83C478.4 69.97 475.81 71.69 473.54 73.98C471.26 76.27 469.43 79.07 468.05 82.38C466.65 85.69 465.96 89.45 465.96 93.65C465.96 97.85 466.65 101.61 468.05 104.91C469.43 108.23 471.26 111.03 473.54 113.32C475.81 115.61 478.4 117.39 481.3 118.66Z" />
					</g>
				</g>
			</g>
		</g>
		<g id="g94">
			<g id="g96">
				<g id="g102">
					<g id="g104">
						<path id="path112" class="shp4" d="M562.88 2.57C560.99 3.33 559.28 4.48 557.76 6.01L557.76 6.01C556.38 7.41 555.24 9.06 554.36 10.97L554.36 10.97C553.6 12.88 553.22 14.98 553.22 17.27L553.22 17.27C553.22 19.56 553.6 21.67 554.36 23.57L554.36 23.57C555.24 25.48 556.38 27.2 557.76 28.73L557.76 28.73C559.28 30.13 560.99 31.28 562.88 32.17L562.88 32.17C564.9 32.93 566.98 33.31 569.13 33.31L569.13 33.31C573.55 33.31 577.33 31.78 580.49 28.73L580.49 28.73C583.64 25.55 585.22 21.73 585.22 17.27L585.22 17.27C585.22 12.82 583.64 9.06 580.49 6.01L580.49 6.01C577.33 2.83 573.55 1.23 569.13 1.23L569.13 1.23C566.98 1.23 564.9 1.68 562.88 2.57ZM556.82 140.43L581.63 140.43L581.63 46.87L556.82 46.87L556.82 140.43Z" />
					</g>
				</g>
			</g>
		</g>
		<g id="g114">
			<g id="g116">
				<g id="g122">
					<g id="g124">
						<path id="path132" class="shp5" d="M640.85 48.01C635.93 50.69 632.02 54.38 629.11 59.09L629.11 59.09L627.6 59.09L627.6 46.87L604.31 46.87L604.31 140.43L629.11 140.43L629.11 94.6C629.11 90.79 629.55 87.22 630.44 83.91L630.44 83.91C631.45 80.47 632.84 77.55 634.61 75.13L634.61 75.13C636.5 72.58 638.71 70.61 641.23 69.21L641.23 69.21C643.89 67.68 646.91 66.92 650.32 66.92L650.32 66.92C656 66.92 660.29 68.57 663.2 71.88L663.2 71.88C666.23 75.07 667.74 80.03 667.74 86.78L667.74 86.78L667.74 140.43L692.55 140.43L692.55 83.72C692.55 77.74 691.79 72.33 690.28 67.49L690.28 67.49C688.89 62.53 686.74 58.33 683.84 54.89L683.84 54.89C681.06 51.32 677.46 48.59 673.05 46.68L673.05 46.68C668.63 44.77 663.51 43.81 657.71 43.81L657.71 43.81C651.4 43.81 645.78 45.21 640.85 48.01Z" />
					</g>
				</g>
			</g>
		</g>
		<g id="g134">
			<g id="g136">
				<g id="g142">
					<g id="g144">
						<path id="path152" fill-rule="evenodd" class="shp6" d="M734.27 47.25C739.57 44.96 745 43.81 750.56 43.81C757 43.81 762.55 45.02 767.22 47.44C772.02 49.73 775.87 52.91 778.77 56.99L780.29 56.99L780.29 46.87L803.96 46.87L803.96 145.5C803.96 153.39 802.75 160.45 800.36 166.69C797.96 173.06 794.61 178.4 790.32 182.73C786.03 187.18 780.86 190.56 774.8 192.85C768.86 195.27 762.23 196.48 754.91 196.48C748.35 196.48 742.48 195.59 737.3 193.81C732.25 192.15 727.84 189.92 724.05 187.12C720.26 184.45 717.11 181.46 714.58 178.15C712.05 174.84 710.22 171.53 709.09 168.22L732.76 158.67C734.53 163.64 737.43 167.45 741.47 170.13C745.51 172.93 749.99 174.33 754.91 174.33C762.74 174.33 768.93 171.85 773.47 166.88C778.02 162.04 780.29 155.23 780.29 146.45L780.29 128.21L778.77 128.21C775.87 132.28 772.02 135.53 767.22 137.95C762.55 140.24 757 141.39 750.56 141.39C745 141.39 739.57 140.24 734.27 137.95C729.1 135.66 724.49 132.41 720.45 128.21C716.41 123.88 713.13 118.73 710.6 112.74C708.08 106.76 706.82 100.08 706.82 92.69C706.82 85.31 708.08 78.63 710.6 72.65C713.13 66.54 716.41 61.38 720.45 57.18C724.49 52.85 729.1 49.54 734.27 47.25ZM746.96 117.14C749.86 118.28 752.83 118.85 755.86 118.85C758.89 118.85 761.86 118.28 764.76 117.14C767.79 115.99 770.44 114.33 772.71 112.17C774.98 109.88 776.81 107.14 778.2 103.96C779.59 100.65 780.29 96.9 780.29 92.69C780.29 88.49 779.59 84.74 778.2 81.43C776.81 78.12 774.98 75.38 772.71 73.22C770.44 70.93 767.79 69.21 764.76 68.06C761.86 66.92 758.89 66.35 755.86 66.35C752.83 66.35 749.86 66.92 746.96 68.06C744.06 69.21 741.47 70.93 739.2 73.22C736.92 75.51 735.09 78.31 733.7 81.62C732.32 84.8 731.62 88.49 731.62 92.69C731.62 96.9 732.32 100.65 733.7 103.96C735.09 107.14 736.92 109.88 739.2 112.17C741.47 114.33 744.06 115.99 746.96 117.14Z" />
					</g>
				</g>
			</g>
		</g>
		<g id="g154">
			<g id="g156">
				<g id="g162">
					<g id="g164">
						<path id="path172" class="shp7" d="M31.45 3.72C26.15 5.63 21.54 8.36 17.63 11.93L17.63 11.93C13.84 15.36 10.87 19.44 8.73 24.15L8.73 24.15C6.71 28.73 5.7 33.69 5.7 39.04L5.7 39.04C5.7 44.26 6.65 48.97 8.54 53.17L8.54 53.17C10.56 57.24 13.08 60.81 16.11 63.86L16.11 63.86C19.14 66.92 22.49 69.53 26.15 71.69L26.15 71.69C29.94 73.85 33.66 75.57 37.32 76.85L37.32 76.85L45.65 79.9C50.58 81.68 54.68 83.4 57.96 85.06L57.96 85.06C61.37 86.71 64.08 88.43 66.1 90.21L66.1 90.21C68.25 91.99 69.77 93.91 70.65 95.94L70.65 95.94C71.53 97.98 71.97 100.27 71.97 102.81L71.97 102.81C71.97 105.49 71.41 107.84 70.27 109.88L70.27 109.88C69.13 111.92 67.56 113.63 65.54 115.04L65.54 115.04C63.64 116.31 61.43 117.33 58.91 118.09L58.91 118.09C56.51 118.73 53.99 119.05 51.33 119.05L51.33 119.05C44.14 119.05 38.33 116.82 33.91 112.36L33.91 112.36C29.49 107.78 26.4 102.05 24.63 95.18L24.63 95.18L0.59 104.72C2.48 111.09 5.07 116.69 8.35 121.53L8.35 121.53C11.63 126.24 15.48 130.25 19.9 133.56L19.9 133.56C24.32 136.87 29.18 139.35 34.48 141L34.48 141C39.78 142.66 45.34 143.49 51.15 143.49L51.15 143.49C56.45 143.49 61.88 142.66 67.43 141L67.43 141C72.98 139.35 77.97 136.87 82.39 133.56L82.39 133.56C86.81 130.25 90.41 126.05 93.18 120.95L93.18 120.95C96.09 115.73 97.54 109.56 97.54 102.43L97.54 102.43C97.54 96.71 96.65 91.68 94.89 87.35L94.89 87.35C93.25 82.89 90.78 78.95 87.5 75.51L87.5 75.51C84.35 72.07 80.49 69.15 75.95 66.73L75.95 66.73C71.53 64.18 66.61 61.95 61.18 60.04L61.18 60.04L52.66 57.18C44.96 54.51 39.34 51.77 35.81 48.97L35.81 48.97C32.27 46.04 30.5 42.54 30.5 38.47L30.5 38.47C30.5 34.27 32.34 30.89 36 28.35L36 28.35C39.66 25.67 44.27 24.34 49.82 24.34L49.82 24.34C55.63 24.34 60.17 25.87 63.45 28.92L63.45 28.92C66.86 31.97 69.2 35.41 70.46 39.23L70.46 39.23L92.99 29.68C91.98 26.63 90.41 23.38 88.26 19.95L88.26 19.95C86.11 16.51 83.27 13.39 79.74 10.59L79.74 10.59C76.33 7.66 72.1 5.31 67.05 3.52L67.05 3.52C62.13 1.61 56.26 0.66 49.44 0.66L49.44 0.66C42.88 0.66 36.88 1.68 31.45 3.72" />
					</g>
				</g>
			</g>
		</g>
		<g id="g174">
			<g id="g176">
				<g id="g182">
					<g id="g184">
						<path id="path192" class="shp8" d="M890.94 140.43L890.94 28.16L853.07 28.16L853.07 3.72L954.38 3.72L954.38 28.16L916.51 28.16L916.51 140.43L890.94 140.43Z" />
					</g>
				</g>
			</g>
		</g>
		<g id="g194">
			<g id="g196">
				<g id="g202">
					<g id="g204">
						<path id="path212" class="shp9" d="M961.19 3.72L988.84 3.72L1016.87 86.01L1021.79 103.58L1023.31 103.58L1028.61 86.01L1057.77 3.72L1085.41 3.72L1035.99 140.43L1009.1 140.43L961.19 3.72Z" />
					</g>
				</g>
			</g>
		</g>
	</g>
</svg>